<svg width="251" height="100" viewBox="0 0 251 100" fill="none" xmlns="http://www.w3.org/2000/svg">
<g clip-path="url(#clip0_512_26)">
<path d="M90.6103 100C83.4483 100 76.4472 97.8758 70.4923 93.896C64.5373 89.9161 59.896 84.2595 57.1553 77.6413C54.4145 71.0231 53.6974 63.7406 55.0946 56.7148C56.4919 49.689 59.9407 43.2353 65.0049 38.17C70.0692 33.1046 76.5214 29.6551 83.5458 28.2575C90.5701 26.86 97.851 27.5773 104.468 30.3186C111.085 33.06 116.74 37.7023 120.719 43.6585C124.698 49.6147 126.822 56.6173 126.822 63.7808C126.812 73.3838 122.994 82.5909 116.205 89.3812C109.416 96.1716 100.211 99.9906 90.6103 100ZM90.6103 42.9088C86.4819 42.9088 82.4462 44.1333 79.0136 46.4274C75.581 48.7215 72.9056 51.9822 71.3257 55.7971C69.7459 59.612 69.3325 63.8099 70.1379 67.8598C70.9433 71.9097 72.9313 75.6298 75.8505 78.5496C78.7697 81.4695 82.489 83.4579 86.5381 84.2635C90.5871 85.069 94.7841 84.6556 98.5982 83.0754C102.412 81.4952 105.672 78.8192 107.966 75.3859C110.259 71.9525 111.484 67.916 111.484 63.7867C111.477 58.2515 109.276 52.9448 105.363 49.0307C101.45 45.1167 96.1443 42.9151 90.6103 42.9088Z" fill="#4E9AD9"/>
<path d="M182.798 30.2291C177.3 27.9978 171.338 27.1515 165.436 27.7647C159.535 28.3778 153.874 30.4317 148.952 33.7457C144.029 37.0597 139.997 41.5323 137.207 46.7705C134.418 52.0087 132.958 57.852 132.956 63.7867V99.9466H148.288V63.7867C148.29 60.6125 149.016 57.4805 150.409 54.6285C151.802 51.7765 153.827 49.2794 156.329 47.3266C158.831 45.3737 161.744 44.0165 164.849 43.3579C167.953 42.6993 171.167 42.7565 174.246 43.5253L182.798 30.2291Z" fill="#4E9AD9"/>
<path d="M48.3597 80.7878C45.245 83.0195 41.5765 84.3509 37.7558 84.6364C33.9352 84.9218 30.1096 84.1503 26.6981 82.4062C23.2865 80.6622 20.4205 78.0128 18.4139 74.7483C16.4073 71.4838 15.3374 67.7299 15.3214 63.8978C15.3054 60.0657 16.3439 56.303 18.3232 53.0219C20.3024 49.7407 23.1462 47.0675 26.5431 45.295C29.9399 43.5224 33.7589 42.719 37.5818 42.9725C41.4048 43.226 45.0843 44.5267 48.2174 46.7323L56.4494 33.7503C51.0048 30.0775 44.6639 27.9551 38.1058 27.6104C31.5476 27.2656 25.0192 28.7115 19.2196 31.7931C13.4201 34.8748 8.56767 39.4762 5.18208 45.1046C1.79649 50.7331 0.00519505 57.1766 1.12829e-05 63.7451C-0.00517248 70.3137 1.77595 76.76 5.15265 82.3938C8.52935 88.0276 13.3745 92.6366 19.1692 95.7275C24.9639 98.8183 31.49 100.274 38.0487 99.94C44.6073 99.6056 50.9516 97.4933 56.402 93.8291L48.3597 80.7878Z" fill="#4E9AD9"/>
<path d="M235.361 0V63.7867C235.356 68.2102 233.945 72.5174 231.331 76.0859C228.718 79.6543 225.037 82.2992 220.822 83.6381C216.607 84.977 212.076 84.9407 207.883 83.5343C203.69 82.128 200.052 79.4245 197.496 75.8145C194.94 72.2046 193.598 67.8753 193.664 63.4523C193.73 59.0293 195.2 54.7418 197.862 51.2094C200.524 47.6771 204.24 45.0829 208.473 43.8017C212.706 42.5206 217.236 42.6189 221.41 44.0825C223.221 44.7092 224.933 45.5914 226.495 46.7026V29.6067C219.246 27.0584 211.375 26.8824 204.019 29.1041C196.664 31.3258 190.206 35.8301 185.579 41.9655C180.951 48.1009 178.396 55.5494 178.28 63.2337C178.165 70.918 180.497 78.4398 184.938 84.7113C189.379 90.9827 195.699 95.6786 202.985 98.1199C210.27 100.561 218.143 100.621 225.465 98.2916C232.787 95.9618 239.178 91.363 243.715 85.1601C248.251 78.9572 250.697 71.4719 250.699 63.7867V0H235.361Z" fill="#4E9AD9"/>
</g>
<defs>
<clipPath id="clip0_512_26">
<rect width="250.694" height="100" fill="white"/>
</clipPath>
</defs>
</svg>
